<svg width="28" height="28" viewBox="0 0 28 28" fill="none" xmlns="http://www.w3.org/2000/svg">
<g clip-path="url(#clip0_1320_26000)">
<path d="M13.9997 14C15.3559 14 16.6817 13.5978 17.8093 12.8444C18.937 12.0909 19.8159 11.0199 20.3349 9.76697C20.8539 8.51399 20.9897 7.13525 20.7251 5.80509C20.4605 4.47493 19.8074 3.25311 18.8485 2.29412C17.8895 1.33513 16.6676 0.682051 15.3375 0.417467C14.0073 0.152882 12.6286 0.288677 11.3756 0.807678C10.1226 1.32668 9.05169 2.20558 8.29822 3.33323C7.54474 4.46088 7.14258 5.78664 7.14258 7.14285C7.14439 8.96092 7.86742 10.704 9.15299 11.9896C10.4386 13.2752 12.1817 13.9982 13.9997 14ZM13.9997 2.57142C14.9039 2.57142 15.7877 2.83953 16.5395 3.34185C17.2912 3.84416 17.8772 4.55812 18.2232 5.39344C18.5692 6.22876 18.6597 7.14792 18.4833 8.03469C18.3069 8.92146 17.8715 9.73602 17.2322 10.3753C16.5929 11.0147 15.7783 11.4501 14.8916 11.6264C14.0048 11.8028 13.0856 11.7123 12.2503 11.3663C11.415 11.0203 10.701 10.4344 10.1987 9.6826C9.6964 8.93083 9.42829 8.047 9.42829 7.14285C9.42829 5.93043 9.90992 4.76767 10.7672 3.91036C11.6245 3.05305 12.7873 2.57142 13.9997 2.57142Z" fill="#F3F3F3"/>
<path d="M13.9986 16.2857C11.2716 16.2887 8.65714 17.3734 6.72885 19.3017C4.80056 21.23 3.71592 23.8444 3.71289 26.5714C3.71289 26.8745 3.8333 27.1652 4.04763 27.3795C4.26195 27.5939 4.55264 27.7143 4.85575 27.7143C5.15885 27.7143 5.44954 27.5939 5.66387 27.3795C5.8782 27.1652 5.9986 26.8745 5.9986 26.5714C5.9986 24.4497 6.84146 22.4149 8.34175 20.9146C9.84204 19.4143 11.8769 18.5714 13.9986 18.5714C16.1203 18.5714 18.1552 19.4143 19.6555 20.9146C21.1557 22.4149 21.9986 24.4497 21.9986 26.5714C21.9986 26.8745 22.119 27.1652 22.3333 27.3795C22.5477 27.5939 22.8384 27.7143 23.1415 27.7143C23.4446 27.7143 23.7353 27.5939 23.9496 27.3795C24.1639 27.1652 24.2843 26.8745 24.2843 26.5714C24.2813 23.8444 23.1967 21.23 21.2684 19.3017C19.3401 17.3734 16.7256 16.2887 13.9986 16.2857Z" fill="#F3F3F3"/>
</g>
<defs>
<clipPath id="clip0_1320_26000">
<rect x="0.285156" y="0.285706" width="27.4286" height="27.4286" rx="10" fill="white"/>
</clipPath>
</defs>
</svg>
